<?xml version="1.0" encoding="utf-8"?>
<!-- Generator: Adobe Illustrator 24.1.2, SVG Export Plug-In . SVG Version: 6.00 Build 0)  -->
<svg version="1.1" id="Ebene_3" xmlns="http://www.w3.org/2000/svg" xmlns:xlink="http://www.w3.org/1999/xlink" x="0px" y="0px"
	 viewBox="0 0 165.6 303.8" style="enable-background:new 0 0 165.6 303.8;" xml:space="preserve">
<style type="text/css">
	.st0{fill:#FFFFFF;}
</style>
<g>
	<g>
		<path class="st0" d="M35.7,303.8c-5.9,0-11-0.7-15.4-2.2c-4.4-1.4-8.1-3.4-11.1-5.8c-3-2.4-5.2-5.1-6.8-8c-1.5-2.9-2.4-5.9-2.4-9
			c0-0.8,0.3-1.5,0.8-2c0.6-0.5,1.3-0.7,2.1-0.7h6.9c0.8,0,1.6,0.2,2.2,0.6c0.7,0.4,1.2,1.2,1.7,2.4c0.9,3.4,2.5,6,4.8,7.8
			c2.3,1.9,4.9,3.1,8,3.8c3,0.7,6.1,1,9.2,1c6.4,0,11.7-1.5,15.7-4.6c4-3.1,6-7.6,6-13.6c0-6.1-1.8-10.4-5.5-13
			c-3.6-2.6-8.7-3.9-15.1-3.9H23.5c-0.9,0-1.7-0.3-2.3-0.8c-0.6-0.6-0.9-1.4-0.9-2.4v-3.8c0-0.8,0.2-1.6,0.5-2.2
			c0.3-0.6,0.7-1.1,1-1.6L49,216.4H7.7c-0.9,0-1.7-0.3-2.3-0.8c-0.6-0.6-0.9-1.4-0.9-2.4v-5.3c0-1,0.3-1.8,0.9-2.4
			c0.6-0.6,1.4-0.9,2.3-0.9h55.8c1,0,1.8,0.3,2.4,0.9c0.6,0.6,0.9,1.4,0.9,2.4v5c0,0.7-0.2,1.2-0.5,1.7c-0.3,0.5-0.7,1-1,1.5
			l-27,30.1l2.2,0.1c6.2,0.2,11.5,1.3,16.2,3.4c4.6,2.1,8.2,5.1,10.8,9.2c2.6,4.1,3.8,9.2,3.8,15.3c0,6.3-1.5,11.6-4.6,16
			c-3.1,4.4-7.3,7.8-12.7,10.1C48.6,302.6,42.5,303.8,35.7,303.8z"/>
		<path class="st0" d="M93.5,302.4c-1,0-1.8-0.3-2.4-0.9c-0.6-0.6-0.8-1.4-0.8-2.3v-91.4c0-1,0.3-1.8,0.8-2.4
			c0.6-0.6,1.4-0.9,2.4-0.9h31.8c9.6,0,17.3,1.4,23.2,4.3c5.9,2.9,10.2,7.2,12.9,12.8c2.7,5.6,4.1,12.6,4.2,20.8
			c0.1,4.2,0.1,7.9,0.1,11.1c0,3.2,0,6.8-0.1,10.9c-0.2,8.6-1.6,15.7-4.3,21.3c-2.7,5.6-6.9,9.8-12.6,12.6
			c-5.7,2.8-13.3,4.1-22.7,4.1H93.5z M103.9,290.5h21.3c6.4,0,11.6-0.9,15.4-2.7c3.8-1.8,6.6-4.6,8.3-8.5c1.7-3.9,2.6-9.1,2.7-15.5
			c0.2-2.8,0.3-5.2,0.3-7.3s0-4.2,0-6.3s-0.1-4.5-0.3-7.2c-0.2-9-2.3-15.7-6.4-20.1c-4.1-4.3-11-6.5-20.7-6.5h-20.6V290.5z"/>
	</g>
	<g>
		<path class="st0" d="M121.8,52.9v67.7c0,1.8-1.4,3.2-3.2,3.2H114c-1.6,0-2.9-1.3-2.9-2.9V75.4c0-0.9-0.8-1.7-1.7-1.7h-2.9
			c-0.9,0-1.7,0.8-1.7,1.7v102.8c0,3.4-2.8,6.2-6.2,6.2h-5c-3.4,0-6.2-2.8-6.2-6.2v-54.3h-9.3v54.3c0,3.4-2.8,6.2-6.2,6.2h-5
			c-3.4,0-6.2-2.8-6.2-6.2V75.4c0-0.9-0.8-1.7-1.7-1.7h-2.9c-0.9,0-1.7,0.8-1.7,1.7v45.5c0,1.6-1.3,2.9-2.9,2.9H47
			c-1.8,0-3.2-1.4-3.2-3.2V52.9c0-4.8,3.9-8.8,8.8-8.8h60.5C117.9,44.2,121.8,48.1,121.8,52.9z"/>
		<circle class="st0" cx="82.8" cy="19.9" r="19.9"/>
	</g>
</g>
</svg>
